<svg xmlns="http://www.w3.org/2000/svg" width="16px" height="16px" viewBox="0 0 16 16">
	<path d="M8,15.961c-4.419,0-8-3.562-8-7.961c0-4.396,3.581-7.961,8-7.961S16,3.604,16,8S12.419,15.961,8,15.961z M14.55,8.835
	c-1.571-0.205-2.962-0.22-4.202-0.028c0.512,1.457,0.942,3.027,1.28,4.683C13.197,12.456,14.301,10.779,14.55,8.835z M10.369,14.129
	c-0.319-1.847-0.754-3.504-1.316-5.037c-2.1,0.629-3.734,1.973-5.104,4.09c1.119,0.867,2.521,1.389,4.052,1.389
	C8.836,14.57,9.631,14.409,10.369,14.129z M1.396,8c0,1.626,0.598,3.109,1.58,4.257C4.652,9.812,6.539,8.539,8.6,7.947
	C8.43,7.551,8.254,7.158,8.064,6.775c-1.84,0.553-4.02,0.842-6.655,0.963C1.406,7.826,1.396,7.911,1.396,8z M1.545,6.618
	c2.08-0.093,4.112-0.322,5.973-0.882c-0.709-1.26-1.541-2.443-2.492-3.598C3.273,3.021,1.969,4.654,1.545,6.618z M8,1.43
	c-0.58,0-1.137,0.08-1.672,0.221c0.917,1.004,1.753,2.228,2.49,3.629c1.285-0.527,2.463-1.254,3.494-2.248
	C11.152,2.036,9.648,1.43,8,1.43z M13.113,3.841c-1.079,1.087-2.312,1.897-3.771,2.489c0.2,0.429,0.389,0.875,0.57,1.329
	c1.48-0.229,3.043-0.177,4.675-0.011C14.51,6.207,13.973,4.889,13.113,3.841z"/>
</svg>
