<svg xmlns="http://www.w3.org/2000/svg" width="16px" height="16px" viewBox="0 0 16 16">
	<path d="M16,3.168v9.713c0,0.394-0.14,0.729-0.42,1.01s-0.617,0.42-1.01,0.42H1.428c-0.393,0-0.729-0.14-1.009-0.42
		S0,13.275,0,12.882V3.168c0-0.394,0.14-0.729,0.419-1.009S1.035,1.74,1.428,1.74H14.57c0.393,0,0.729,0.14,1.01,0.419
		S16,2.775,16,3.168z M14.856,3.499c0-0.012,0-0.045,0-0.098c0-0.054,0-0.094,0-0.121c0-0.027-0.002-0.065-0.004-0.116
		c-0.003-0.051-0.013-0.088-0.027-0.112s-0.031-0.05-0.049-0.08c-0.018-0.03-0.045-0.052-0.08-0.067
		C14.66,2.89,14.618,2.882,14.57,2.882H1.428c-0.077,0-0.144,0.028-0.201,0.085C1.17,3.024,1.142,3.091,1.142,3.168
		c0,1,0.438,1.845,1.312,2.536c1.148,0.905,2.342,1.848,3.581,2.83c0.036,0.03,0.14,0.117,0.312,0.264
		c0.173,0.146,0.31,0.258,0.411,0.335C6.859,9.21,6.992,9.304,7.156,9.414C7.32,9.523,7.47,9.605,7.606,9.659
		c0.138,0.054,0.265,0.08,0.384,0.08H8h0.009c0.119,0,0.247-0.026,0.384-0.08C8.529,9.605,8.68,9.523,8.844,9.414
		C9.008,9.304,9.139,9.21,9.24,9.133s0.238-0.189,0.411-0.335c0.172-0.146,0.276-0.233,0.312-0.264
		c1.237-0.982,2.431-1.925,3.58-2.83c0.321-0.256,0.621-0.6,0.897-1.032C14.719,4.241,14.856,3.85,14.856,3.499z M14.856,12.882
		V6.025c-0.189,0.214-0.396,0.411-0.616,0.589c-1.595,1.226-2.863,2.232-3.804,3.018c-0.303,0.256-0.551,0.455-0.74,0.599
		c-0.191,0.142-0.448,0.287-0.772,0.433c-0.324,0.146-0.63,0.219-0.915,0.219H8H7.991c-0.286,0-0.59-0.072-0.916-0.219
		c-0.324-0.146-0.582-0.291-0.772-0.433c-0.191-0.144-0.438-0.343-0.741-0.599C4.621,8.847,3.353,7.841,1.758,6.615
		C1.538,6.436,1.332,6.24,1.142,6.025v6.856c0,0.078,0.028,0.145,0.084,0.202c0.057,0.057,0.124,0.085,0.201,0.085H14.57
		c0.077,0,0.146-0.028,0.202-0.085C14.828,13.026,14.856,12.96,14.856,12.882z"/>
</svg>
