<svg xmlns="http://www.w3.org/2000/svg" width="16px" height="16px" viewBox="0 0 16 16">
	<path d="M14.5,5.223c0-1.154-0.439-2.083-1.152-2.785c0.125-0.398,0.289-1.282-0.168-2.414c0,0-0.81-0.254-2.638,0.955
	c-0.716-0.18-1.479-0.266-2.241-0.266c-0.838,0-1.688,0.105-2.479,0.32c-1.888-1.271-2.72-1.011-2.72-1.011
	C2.559,1.364,2.894,2.359,2.997,2.606C2.355,3.286,1.969,4.157,1.969,5.22c0,0.807,0.093,1.526,0.32,2.155l0.236,0.532
	c0.639,1.173,1.895,1.932,4.128,2.17c-0.316,0.21-0.644,0.565-0.772,1.171c-0.433,0.204-1.8,0.703-2.62-0.688
	c0,0-0.46-0.834-1.339-0.896c0,0-0.854-0.012-0.058,0.523c0,0,0.568,0.268,0.964,1.264c0,0,0.513,1.704,2.992,1.158v1.759
	c0,0-0.055,0.622-0.631,0.83c0,0-0.341,0.229,0.025,0.362c0,0,1.603,0.127,1.603-1.166v-1.922c0,0-0.065-0.76,0.312-1.021v3.15
	c0,0-0.024,0.75-0.419,1.033c0,0-0.263,0.469,0.315,0.34c0,0,1.102-0.154,1.151-1.429l0.025-3.188h0.265l0.025,3.188
	c0.054,1.271,1.155,1.429,1.155,1.429c0.576,0.129,0.312-0.34,0.312-0.34c-0.394-0.283-0.42-1.033-0.42-1.033v-3.125
	c0.377,0.293,0.315,0.996,0.315,0.996v1.922c0,1.293,1.6,1.166,1.6,1.166c0.367-0.134,0.027-0.362,0.027-0.362
	c-0.578-0.208-0.631-0.83-0.631-0.83v-2.517c0-0.979-0.418-1.496-0.826-1.771c2.383-0.23,3.523-0.995,4.052-2.174
	c-0.011,0.021,0.188-0.527,0.188-0.527C14.445,6.753,14.5,6.029,14.5,5.223z M2.13,9.991c-0.094,0-0.169-0.054-0.169-0.119
	c0-0.062,0.075-0.115,0.169-0.115c0.095,0,0.171,0.056,0.171,0.115C2.302,9.938,2.225,9.991,2.13,9.991z M2.432,10.133
	c0-0.062,0.078-0.117,0.172-0.117c0.096,0,0.172,0.055,0.172,0.117S2.7,10.25,2.604,10.25C2.51,10.25,2.432,10.195,2.432,10.133z
	 M2.722,10.473c0-0.064,0.076-0.117,0.17-0.117c0.096,0,0.171,0.053,0.171,0.117c0,0.062-0.075,0.112-0.171,0.112
	C2.798,10.585,2.722,10.534,2.722,10.473z M3.154,10.975c-0.096,0-0.171-0.052-0.171-0.11c0-0.067,0.075-0.117,0.171-0.117
	c0.095,0,0.17,0.05,0.17,0.117C3.325,10.923,3.249,10.975,3.154,10.975z M3.442,11.338c-0.095,0-0.17-0.052-0.17-0.115
	c0-0.062,0.075-0.115,0.17-0.115c0.095,0,0.171,0.053,0.171,0.115C3.613,11.286,3.537,11.338,3.442,11.338z M3.837,11.648
	c-0.095,0-0.171-0.054-0.171-0.117s0.076-0.116,0.171-0.116c0.093,0,0.17,0.052,0.17,0.116C4.008,11.6,3.931,11.648,3.837,11.648z
	 M4.387,11.854c-0.094,0-0.169-0.052-0.169-0.112c0-0.065,0.076-0.118,0.169-0.118c0.097,0,0.17,0.053,0.17,0.118
	C4.558,11.805,4.482,11.854,4.387,11.854z M4.938,11.854c-0.096,0-0.172-0.052-0.172-0.112c0-0.065,0.077-0.118,0.172-0.118
	s0.171,0.053,0.171,0.118C5.107,11.805,5.03,11.854,4.938,11.854z M5.493,11.766c-0.095,0-0.171-0.053-0.171-0.115
	s0.077-0.114,0.171-0.114c0.093,0,0.17,0.052,0.17,0.114S5.586,11.766,5.493,11.766z"/>
</svg>
