<svg xmlns="http://www.w3.org/2000/svg" width="16px" height="16px" viewBox="0 0 16 16">
	<path d="M14.896,4.053c0.709,1.215,1.063,2.542,1.063,3.98s-0.354,2.766-1.063,3.98s-1.671,2.177-2.886,2.886
		s-2.541,1.063-3.979,1.063c-1.439,0-2.766-0.354-3.98-1.063s-2.177-1.671-2.886-2.886s-1.063-2.542-1.063-3.98
		s0.354-2.765,1.063-3.98S2.835,1.876,4.05,1.167c1.215-0.709,2.542-1.063,3.98-1.063c1.438,0,2.765,0.354,3.979,1.063
		C13.225,1.876,14.187,2.838,14.896,4.053z M8.082,12.225l3.614-4.883c0.11-0.152,0.194-0.355,0.253-0.61
		c0.058-0.254,0.038-0.547-0.062-0.877c-0.101-0.331-0.312-0.602-0.636-0.815c-0.274-0.179-0.561-0.267-0.856-0.264
		C10.099,4.779,9.846,4.84,9.636,4.956c-0.21,0.117-0.397,0.272-0.562,0.465C8.825,5.696,8.495,5.834,8.082,5.834
		c-0.406,0-0.733-0.138-0.981-0.413C6.936,5.229,6.748,5.073,6.538,4.956C6.328,4.84,6.075,4.779,5.779,4.775
		C5.483,4.772,5.194,4.86,4.912,5.039C4.595,5.252,4.387,5.524,4.287,5.854c-0.1,0.331-0.12,0.624-0.062,0.877
		c0.058,0.255,0.143,0.458,0.253,0.61L8.082,12.225z"/>
</svg>
