<svg xmlns="http://www.w3.org/2000/svg" width="16px" height="16px" viewBox="0 0 16 16">
	<path d="M9.542,6.168H9.419v1.15h0.267c0.344,0,0.396-0.168,0.396-0.587C10.082,6.168,9.9,6.168,9.542,6.168z"/>
	<path d="M12.605,6.093c-0.309,0-0.309,0.267-0.309,0.423v2.294c0,0.123,0,0.426,0.309,0.426c0.308,0,0.308-0.303,0.308-0.426V6.516
		C12.913,6.36,12.913,6.093,12.605,6.093z"/>
	<path d="M0.028,0v16h16V0H0.028z M5.437,9.984H4.368V8.01H3.753v1.975H2.684V5.343h1.069V7.08h0.615V5.343h1.069V9.984z
		 M7.427,8.073v1.911H6.359V8.149L5.488,5.343h1.103l0.296,1.568h0.011l0.314-1.568h1.086L7.427,8.073z M10.021,8.143H9.419v1.841
		h-1.07V5.343h1.144c1.174,0,1.657,0.198,1.657,1.411C11.15,7.433,10.98,8.143,10.021,8.143z M13.982,8.717
		c0,0.827-0.527,1.344-1.377,1.344c-0.849,0-1.377-0.517-1.377-1.344V6.609c0-0.905,0.582-1.341,1.377-1.341
		s1.377,0.436,1.377,1.341V8.717z"/>
</svg>
