<svg xmlns="http://www.w3.org/2000/svg" width="16px" height="16px" viewBox="0 0 16 16">
	<path d="M6.781,5.897c0,0.08-0.059,0.172-0.212,0.172H5.304v0.527C5.526,6.768,6.447,7.55,6.447,8.035
		c0,0.254-0.16,0.456-0.314,0.456c-0.09,0-0.181-0.081-0.231-0.293C5.82,7.833,5.558,7.397,5.304,7.043v2.504
		c0,0.132,0,0.283,0,0.444c0,0.649,0.01,1.47,0.01,1.723c0,0.347,0.021,0.609,0.021,0.609c0,0.231-0.255,0.273-0.427,0.283
		c-0.142,0-0.253-0.07-0.253-0.212c0-0.021,0-0.031,0-0.042c0.011-0.121,0.03-0.324,0.03-0.536c0.02-0.487,0.051-1.136,0.062-2.27
		c0.01-0.619,0.029-1.431,0.05-2.089C4.735,7.65,4.685,7.833,4.634,7.945c-0.689,1.541-1.327,2.159-1.378,2.159
		c-0.07,0-0.212-0.071-0.212-0.162c0-0.021,0.008-0.041,0.019-0.061C3.834,8.825,4.381,7.438,4.654,6.07H4.37
		c-0.283,0-0.75,0.049-0.953,0.071c-0.1-0.102-0.172-0.305-0.172-0.487c0-0.02,0-0.03,0-0.041C3.529,5.664,4.36,5.705,4.614,5.705
		h0.142l0.01-1.146c0-0.294-0.01-0.639-0.081-1.156c0.029,0,0.062,0,0.091,0c0.173,0,0.902,0.01,0.902,0.253
		c0,0.142-0.172,0.244-0.364,0.284v1.764h0.304c0.375-0.466,0.384-0.476,0.436-0.476C6.074,5.229,6.781,5.685,6.781,5.897z
		 M12.956,11.938c0,0.081-0.043,0.162-0.112,0.172c-0.081,0.012-0.274,0.072-0.437,0.254c-0.04,0.041-0.09,0.05-0.132,0.05
		c-0.01,0-0.019,0-0.029,0c-0.942-0.08-1.925-0.455-2.696-1.084c-1.61,1.115-3.549,1.299-3.549,1.299
		c-0.1,0-0.181-0.103-0.181-0.193c0-0.062,0.03-0.111,0.11-0.133c1.369-0.232,2.455-0.708,3.255-1.297
		c-0.335-0.334-0.608-0.72-0.812-1.155c-1.195,1.379-2.229,1.723-2.241,1.723c-0.059,0-0.11-0.04-0.141-0.081
		c-0.01-0.03-0.03-0.061-0.03-0.101c0-0.041,0.021-0.071,0.061-0.102c0.964-0.6,2.089-1.652,2.646-2.767H7.958v0.364
		c0,0.132-0.191,0.224-0.354,0.224c-0.132,0-0.244-0.062-0.244-0.183c0-0.011,0-0.021,0-0.029C7.37,8.796,7.422,8.005,7.422,7.681
		v-1.48c0-0.648,0-0.648,0-0.648c0-0.133-0.021-0.375-0.062-0.74c0.233,0.061,0.478,0.163,0.66,0.283h0.548
		C8.66,4.822,8.709,4.549,8.75,4.276H8.091c-0.477,0-1.086,0.02-1.644,0.081C6.338,4.205,6.256,4.022,6.235,3.799
		c0.476,0.041,1.166,0.08,2.087,0.08h3.071c0.437-0.495,0.466-0.506,0.497-0.506c0.052,0,0.861,0.457,0.861,0.699
		c0,0.102-0.07,0.204-0.231,0.204H9.429C9.276,4.6,9.157,4.832,9.004,5.096h1.803c0.102-0.121,0.223-0.283,0.304-0.283
		c0.029,0,0.112,0.01,0.526,0.334c0.043,0.041,0.092,0.112,0.092,0.183c-0.011,0.102-0.092,0.183-0.314,0.244v1.986
		c0,0.233,0.011,0.375,0.021,0.72c0,0.051,0.011,0.355,0.02,0.415c0,0.012,0,0.021,0,0.031c0,0.029,0,0.223-0.375,0.223
		c-0.121,0-0.231-0.049-0.231-0.161V8.522H9.325c-0.14,0.244-0.29,0.476-0.454,0.699h1.682c0.061-0.051,0.183-0.224,0.274-0.224
		c0.009,0,0.021,0.01,0.029,0.01c0.012,0,0.021,0,0.031,0.011l0.012,0.011c0,0,0.555,0.324,0.555,0.526
		c0,0.052-0.009,0.193-0.396,0.232c-0.292,0.437-0.658,0.862-1.112,1.238c0.789,0.476,1.812,0.709,2.927,0.77
		C12.925,11.796,12.956,11.867,12.956,11.938z M7.948,7.428v0.496c0,0.041,0,0.153,0.01,0.265h2.898V7.752l0.012-0.324H7.948z
		 M10.868,5.431h-2.91V6.07h2.91V5.431z M7.958,6.404v0.689h2.91V6.404H7.958z M8.638,9.565c0.213,0.476,0.52,0.852,0.89,1.166
		c0.407-0.365,0.731-0.76,0.954-1.166H8.638z"/>

	<path d="M8,16c-4.411,0-8-3.589-8-8s3.589-8,8-8s8,3.589,8,8S12.411,16,8,16z M8,0.941C4.107,0.941,0.941,4.107,0.941,8
	S4.107,15.059,8,15.059S15.059,11.893,15.059,8S11.893,0.941,8,0.941z"/>
</svg>
