<svg xmlns="http://www.w3.org/2000/svg" width="16px" height="16px" viewBox="0 0 16 16">
	<path d="M7.754,12.346c-2.436-0.128-4.378-2.15-4.378-4.616c0-2.55,2.075-4.625,4.625-4.625s4.623,2.075,4.623,4.625
		c0,1.579-0.798,2.977-2.011,3.811c1.085,0.782,2.297,1.101,3.248,1.219c1.163-1.354,1.868-3.11,1.868-5.029
		C15.729,3.467,12.263,0,8.001,0C3.738,0,0.271,3.467,0.271,7.729c0,4.262,3.467,7.729,7.729,7.729c0.675,0,1.329-0.088,1.953-0.25
		C8.8,14.216,8.133,13.22,7.754,12.346z"/>
	<path d="M7.966,8.748c0,0-1.535,3.939,3.948,7.249c0,0,1.043-0.235,3.469-2.691C15.383,13.306,9.821,13.863,7.966,8.748z"/>
</svg>
