<svg xmlns="http://www.w3.org/2000/svg" width="16px" height="16px" viewBox="0 0 16 16">
	<path d="M16,3.04c-0.588,0.261-1.221,0.438-1.885,0.517c0.678-0.406,1.197-1.049,1.441-1.815c-0.633,0.376-1.336,0.648-2.084,0.796
	C12.875,1.898,12.021,1.5,11.078,1.5c-1.812,0-3.283,1.47-3.283,3.283c0,0.257,0.028,0.508,0.085,0.748
	C5.152,5.394,2.734,4.087,1.115,2.101C0.832,2.585,0.67,3.148,0.67,3.751c0,1.139,0.579,2.144,1.46,2.731
	c-0.538-0.017-1.044-0.165-1.487-0.41c0,0.014,0,0.026,0,0.042c0,1.59,1.132,2.917,2.634,3.218C3.001,9.407,2.711,9.447,2.412,9.447
	c-0.213,0-0.418-0.021-0.618-0.06c0.417,1.304,1.63,2.253,3.065,2.279c-1.123,0.881-2.539,1.405-4.076,1.405
	c-0.266,0-0.526-0.017-0.783-0.047c1.453,0.933,3.178,1.476,5.031,1.476c6.04,0,9.34-5.001,9.34-9.339
	c0-0.143-0.004-0.284-0.01-0.426C15.004,4.277,15.561,3.699,16,3.04L16,3.04z"/>
</svg>
